<?xml version="1.0" encoding="utf-8"?>
<!-- Generator: Adobe Illustrator 27.5.0, SVG Export Plug-In . SVG Version: 6.00 Build 0)  -->
<svg version="1.1" id="Capa_1" xmlns="http://www.w3.org/2000/svg" xmlns:xlink="http://www.w3.org/1999/xlink" x="0px" y="0px"
	 viewBox="0 0 425.2 425.2" style="enable-background:new 0 0 425.2 425.2;" xml:space="preserve">
<rect x="0.001" y="0.002" style="fill:#8ED4DC;" width="425.196" height="425.195"/>
<path style="fill:#F8F8F9;" d="M365.627,225.304c-6.629-6.923-15.817-11.562-24.528-15.919c-8.627-4.315-19.137-8.557-24.812-16.231
	c-5.334-7.214-2.635-16.118,0.466-23.593c4.569-11.015,10.45-21.688,16.351-32.146c2.697-4.779,5.398-9.504,8.561-14.042
	c3.075-4.411,5.997-8.851,7.636-13.899c2.485-7.648-0.118-16.853-5.234-23.141c-9.579-11.774-27.417-14.437-42.457-13.536
	c-11.066,0.663-21.953,3.496-32.811,5.39c-13.249,2.309-26.683,3.326-39.951,0.594c-11.188-2.303-17.78-9.133-24.977-16.753
	c-6.713-7.108-13.823-14.159-22.553-19.228c-8.949-5.196-18.94-6.208-29.291-6.45c-10.441-0.244-20.924,0.318-31.17,2.241
	c-19.077,3.58-38.691,14.733-43.923,32.868c-4.724,16.373,5.379,33.105,13.847,46.888c8.399,13.671,20.566,29.777,16.232,46.324
	c-3.717,14.188-22.265,21.079-34.372,28.194c-7.438,4.371-13.134,9.185-15.589,17.192c-2.339,7.63-0.942,16.027,1.207,23.542
	c3.817,13.346,11.884,24.638,18.587,36.786c4.761,8.628,19.173,35.047,0.896,37.994c-2.461,0.396-3.328,2.162-3.041,3.895
	c-5.994,3.251-10.79,7.776-11.812,14.772c-1.128,7.721,6.062,11.327,13.035,13.253c10.432,2.882,20.944,5.537,31.775,6.81
	c12.614,1.48,25.3,1.532,37.979,0.803c25.436-1.464,50.493-6.147,75.692-9.378c13.379-1.714,26.766-3.379,40.145-5.091
	c10.626-1.359,21.127-1.94,31.778-2.884c9.252-0.82,17.662-2.826,22.598-10.576c2.347-3.686,3.702-7.827,6.035-11.531
	c2.12-3.363,5.897-5.725,9.15-8.119c13.449-9.895,27.944-19.148,37.776-32.386C379.178,254.049,377.652,237.861,365.627,225.304z"/>
<path style="fill:#4A9A7E;" d="M139.491,287.764c-1.065-3.518-3.846-6.74-6.781-8.326c-1.493-0.807-3.142-1.301-4.823-1.489
	c-0.778-1.765-1.838-3.458-3.089-4.94c-0.446-0.531-0.951-1.057-1.497-1.553c-0.003-0.043-0.001-0.086-0.006-0.129
	c-0.359-3.703-2.957-6.23-6.363-7.393c-0.272-0.092-0.549-0.166-0.829-0.23c-0.692-3.72-2.436-7.227-5.172-9.783
	c-1.201-1.121-2.935-1.396-4.384-0.565c-1.671,0.958-2.974,2.163-3.919,3.524c-1.354,0.036-2.715,0.503-3.925,1.335
	c-1.049,0.721-1.914,1.58-2.647,2.523c-1.051-0.205-2.128-0.264-3.167-0.17c-2.654,0.242-5.115,1.307-7.005,2.885
	c-0.176-0.135-0.354-0.27-0.542-0.398c-2.841-1.92-6.9-1.316-9.545,0.611c-2.397,1.745-4.215,4.547-4.261,7.557
	c-1.529,1.152-2.674,2.865-3.381,4.662c-0.989,2.514-1.088,5.045-0.478,7.283c-1.6,1.169-2.924,2.91-3.775,5.178
	c-0.832,2.217-0.947,4.589-0.506,6.859c-0.08,0.022-0.158,0.034-0.238,0.058c-3.836,1.128-6.267,4.9-7.021,8.643
	c-0.806,3.997,0.031,8.215,2.587,11.421c1.704,2.138,3.932,3.306,6.361,3.836c0.624,1.379,1.687,2.412,3.495,2.438
	c3.024,0.041,6.033,0.386,9.051,0.565c4.484,0.267,9.244-0.091,13.092-2.298c3.443,1.748,7.35,2.654,11.14,2.723
	c0.556,0.01,1.152-0.023,1.771-0.095c2.57,1.285,5.725,1.87,8.068,2.192c5.165,0.711,11.129,0.865,15.974-1.365
	c2.295-1.057,3.784-3.025,4.445-5.268c4.208-0.177,8.5-1.43,11.072-4.776c0.982-1.278,1.581-2.754,1.839-4.277
	c2.407-1.641,3.933-4.512,4.146-7.877C149.612,294.242,144.944,289.31,139.491,287.764z"/>
<path style="fill:#4A9A7E;" d="M374.376,293.057c-0.056-0.532-0.153-1.088-0.304-1.672c-0.637-2.463-2.405-4.077-4.572-5.127
	c0.142-1.082,0.025-2.28-0.414-3.6c-0.885-2.662-2.92-4.299-5.462-5.133c-0.018-2.944-1.598-5.967-3.941-8.029
	c-2.851-2.51-6.984-3.101-10.949-2.293c0.546-3.918,0.218-8.256-2.611-11.084c-2.29-2.288-4.979-2.17-7.307-0.926
	c-1.029-2.263-2.64-4.083-4.939-5.032c-4.269-1.762-8.272,1.538-10.111,5.145c-0.377-0.497-0.777-0.979-1.211-1.439
	c-1.001-1.066-2.697-0.957-3.714,0c-0.652,0.613-1.229,1.293-1.74,2.016c-1.414-1.399-3.284-1.852-5.755-0.527
	c-2.783,1.491-4.074,4.183-4.438,7.289c-1.489,0.471-2.854,1.6-3.808,2.877c-0.72,0.961-1.313,2.036-1.773,3.172
	c-1.361,0.135-2.432,0.643-3.266,1.406c-0.733-1.31-1.651-2.531-2.816-3.627c-1.064-0.999-2.652-1.008-3.715,0
	c-3.876,3.68-4.912,10.137-5.052,15.215c-0.019,0.695-0.004,1.426,0.045,2.166c-0.126,0.076-0.25,0.154-0.368,0.234
	c-2.604,1.754-4.222,4.379-4.602,7.479c-0.09,0.741-0.049,1.456,0.096,2.142c-1.756,1.722-2.566,4.634-2.387,6.852
	c0.134,1.67,0.702,3.391,1.582,5.012c-1.949,1.656-2.977,4.332-3.261,6.859c-0.369,3.277,0.524,6.846,2.91,9.211
	c2.236,2.215,5.178,2.467,7.987,1.793c2.178,1.346,5.055,1.774,7.477,2.027c4.984,0.52,10.072,0.027,15.055-0.27
	c1.934-0.114,3.873-0.227,5.811-0.176c3.573,0.09,7.216,1.229,10.686,2.002c7.226,1.611,14.018,1.982,21.194-0.098
	c3.319-0.962,7.16-2.814,7.432-6.691c0.107-1.527-0.63-2.852-1.693-3.943c3.107-0.228,6.175-0.852,8.869-2.205
	c1.625-0.816,2.779-2.119,3.408-3.596c4.935-0.863,10.724-2.96,12.125-8.027C380.086,297.955,377.935,294.869,374.376,293.057z"/>
<path style="fill:#57B292;" d="M166.086,310.268c-0.04-0.393-0.112-0.802-0.223-1.231c-0.469-1.816-1.771-3.004-3.368-3.777
	c0.105-0.797,0.019-1.68-0.305-2.651c-0.653-1.962-2.151-3.167-4.024-3.782c-0.014-2.168-1.177-4.395-2.903-5.914
	c-2.101-1.848-5.145-2.283-8.065-1.69c0.402-2.886,0.161-6.081-1.923-8.164c-1.687-1.686-3.668-1.598-5.383-0.682
	c-0.758-1.667-1.944-3.008-3.639-3.707c-3.144-1.298-6.093,1.133-7.448,3.789c-0.278-0.365-0.573-0.719-0.892-1.059
	c-0.737-0.787-1.987-0.706-2.736,0c-0.48,0.451-0.905,0.951-1.282,1.484c-1.041-1.031-2.419-1.363-4.239-0.389
	c-2.05,1.099-3.001,3.081-3.27,5.369c-1.097,0.348-2.102,1.179-2.805,2.119c-0.531,0.709-0.968,1.5-1.307,2.336
	c-1.002,0.101-1.791,0.475-2.406,1.037c-0.54-0.965-1.216-1.865-2.075-2.672c-0.783-0.736-1.954-0.743-2.736,0
	c-2.855,2.711-3.619,7.467-3.722,11.207c-0.014,0.514-0.003,1.051,0.033,1.596c-0.093,0.057-0.185,0.114-0.271,0.173
	c-1.918,1.292-3.11,3.226-3.39,5.51c-0.066,0.546-0.036,1.073,0.07,1.577c-1.294,1.269-1.89,3.414-1.759,5.048
	c0.099,1.23,0.517,2.497,1.165,3.692c-1.436,1.219-2.193,3.19-2.402,5.053c-0.272,2.414,0.386,5.041,2.144,6.784
	c1.647,1.632,3.814,1.817,5.883,1.321c1.604,0.991,3.724,1.307,5.508,1.493c3.672,0.383,7.419,0.021,11.09-0.198
	c1.424-0.084,2.853-0.167,4.281-0.131c2.632,0.067,5.316,0.906,7.872,1.476c5.323,1.186,10.326,1.46,15.613-0.071
	c2.445-0.709,5.274-2.073,5.475-4.93c0.079-1.125-0.464-2.1-1.247-2.904c2.289-0.168,4.549-0.627,6.534-1.625
	c1.197-0.602,2.047-1.56,2.51-2.648c3.635-0.637,7.899-2.181,8.932-5.913C170.293,313.876,168.709,311.603,166.086,310.268z"/>
<path style="fill:#57B292;" d="M335.794,304.721c-42.084-8.177-81.591,8.176-121.958,11.81
	c-40.903,3.548-82.331,2.661-122.647-4.813H78.778c-14.076,0-25.486,12.068-25.486,26.959c0,14.889,11.41,26.961,25.486,26.961
	h269.274v-0.16c0.906,0.103,1.831,0.16,2.766,0.16c14.076,0,25.489-12.072,25.489-26.961c0-12.515-8.061-23.033-18.99-26.072
	c0.16-0.084,0.311-0.18,0.469-0.266C350.558,309.146,343.278,306.252,335.794,304.721z"/>
<g>
	<path style="fill:none;stroke:#00A27D;stroke-width:3.5333;stroke-linecap:round;stroke-linejoin:round;stroke-miterlimit:10;" d="
		M89.732,336.063c-0.43-5.451-2.577-10.902-4.294-16.353"/>
	<path style="fill:none;stroke:#00A27D;stroke-width:3.5333;stroke-linecap:round;stroke-linejoin:round;stroke-miterlimit:10;" d="
		M110.774,331.52c1.288-1.816,2.576-4.996,3.435-7.722"/>
	<path style="fill:none;stroke:#00A27D;stroke-width:3.5333;stroke-linecap:round;stroke-linejoin:round;stroke-miterlimit:10;" d="
		M138.257,326.068c-0.43-2.271-1.288-4.541-2.147-6.813"/>
	<path style="fill:none;stroke:#00A27D;stroke-width:3.5333;stroke-linecap:round;stroke-linejoin:round;stroke-miterlimit:10;" d="
		M152.428,324.252c0.43-0.454,0.43-0.454,0.43-0.454"/>
	<path style="fill:none;stroke:#00A27D;stroke-width:3.5333;stroke-linecap:round;stroke-linejoin:round;stroke-miterlimit:10;" d="
		M215.554,330.158c0.429,1.816,1.288,4.088,1.718,6.359"/>
	<path style="fill:none;stroke:#00A27D;stroke-width:3.5333;stroke-linecap:round;stroke-linejoin:round;stroke-miterlimit:10;" d="
		M262.362,317.439c-0.43-1.818-0.859-3.18-1.717-4.998"/>
	<path style="fill:none;stroke:#00A27D;stroke-width:3.5333;stroke-linecap:round;stroke-linejoin:round;stroke-miterlimit:10;" d="
		M341.376,321.527c1.719-3.18,3.436-6.359,5.154-9.539"/>
	<path style="fill:none;stroke:#00A27D;stroke-width:3.5333;stroke-linecap:round;stroke-linejoin:round;stroke-miterlimit:10;" d="
		M320.764,330.611c-2.147,2.272-3.435,4.089-4.723,6.814"/>
	<path style="fill:none;stroke:#00A27D;stroke-width:3.5333;stroke-linecap:round;stroke-linejoin:round;stroke-miterlimit:10;" d="
		M294.568,343.33c-2.576-2.725-5.152-5.451-7.729-7.722"/>
	<path style="fill:none;stroke:#00A27D;stroke-width:3.5333;stroke-linecap:round;stroke-linejoin:round;stroke-miterlimit:10;" d="
		M352.112,329.703c1.717-0.908,3.435-1.816,5.153-3.18"/>
	<path style="fill:none;stroke:#00A27D;stroke-width:3.5333;stroke-linecap:round;stroke-linejoin:round;stroke-miterlimit:10;" d="
		M67.831,323.344c1.288,2.725,3.006,5.451,5.152,7.723"/>
</g>
<path style="fill:#003841;" d="M139.642,88.181c0,0-2.663,11.484-2.105,18.785c0.442,5.774-3.471,15.219,6.22,13.826
	c9.685-1.396,31.016-0.68,28.453-7.239c-2.646-6.775-2.71-29.35-12.623-31.697c-12.128-2.869-20.032,5.545-20.032,5.545
	L139.642,88.181z"/>
<g>
	<g>
		<g>
			<g>
				<path style="fill:#90ADDA;" d="M132.428,231.936c0.552,0.806,0.489,1.23-0.615,3.966c-0.508,1.26-2.251,0.889-3.727,0.293
					c-1.957-0.791-3.445,4.434-9.424,2.021c-3.381-1.365-2.104-4.177,0.129-5.039c4.311-1.659,5.566-0.902,8.751-2.992
					c0.047-0.03,0.084-0.089,0.143-0.096c1.083-0.132,2.043,0.256,2.695,0.519C130.959,230.842,132.05,231.387,132.428,231.936z"/>
			</g>
		</g>
	</g>
</g>
<g>
	<g>
		<path style="fill:#E1F3FA;" d="M118.939,237.528c5.979,2.412,7.467-2.811,9.424-2.021c1.426,0.575,3.095,0.935,3.665-0.172
			c-0.065,0.181-0.136,0.369-0.215,0.566c-0.508,1.26-2.251,0.889-3.727,0.293c-1.957-0.791-3.445,4.434-9.424,2.021
			c-2.164-0.872-2.416-2.341-1.734-3.509C116.692,235.722,117.185,236.819,118.939,237.528z"/>
	</g>
</g>
<g>
	<path style="fill:#FDB92A;" d="M136.118,203.25c-2.419,6.403-9.977,26.742-9.155,28.036c0.701,1.109,4.346,3.584,4.898,2.648
		c2.061-3.493,11.879-20.275,14.083-24.15c0,0,0.099-2.275-2.633-4.223C139.309,202.706,136.118,203.25,136.118,203.25z"/>
</g>
<polygon style="fill:#FDB92A;" points="181.495,178.303 176.965,166.178 146.432,171.864 147.235,185.441 "/>
<g>
	<g>
		<g>
			<path style="fill:#003841;" d="M146.137,173.081c-0.027-0.403,0.526-8.948,0.17-11.876c-1.004-8.256-9.392-31.564-3.971-33.618
				c2.849-1.078,7.191-2.888,7.191-2.888l8.582-1.598c0,0,6.606-0.573,8.784,0.991c3.562,2.556,4.097,10.457,4.512,14.833
				c0.686,7.241,0.999,9.396,3.142,19.741c0.365,1.765,1.67,6.796,3.311,8.044c0.549,0.417,0.711,1.3,0.056,1.983
				C176.936,169.717,146.333,175.878,146.137,173.081z"/>
		</g>
	</g>
</g>
<g>
	<g>
		<path style="fill:#F8AEA2;" d="M148.922,113.217l1.177,11.287c0,0-0.199,10.35,1.833,9.845c1.635-0.408,6.778-11.36,6.778-11.36
			l-2.901-10.985L148.922,113.217z"/>
	</g>
</g>
<g>
	<g>
		<path style="fill:#FBC4AB;" d="M162.801,109.906c-0.438,7.369-6.771,12.991-14.145,12.552l0,0
			c-7.372-0.438-12.993-6.774-12.553-14.147l0.808-13.563c0.44-7.374,6.774-12.994,14.145-12.553l0,0
			c7.373,0.438,12.993,6.772,12.554,14.146L162.801,109.906z"/>
	</g>
</g>
<path style="fill:none;stroke:#F79C87;stroke-width:0.7035;stroke-linecap:round;stroke-linejoin:round;stroke-miterlimit:10;" d="
	M145.066,106.67c0,0-2.594,3.473,0.864,3.098"/>
<path style="fill:#F8AEA2;" d="M146.695,116.297c-0.014,0.258-0.567,0.438-1.236,0.395c-0.667-0.039-1.195-0.281-1.179-0.54
	c0.017-0.258,0.569-0.436,1.235-0.394C146.182,115.796,146.713,116.038,146.695,116.297z"/>
<path style="fill:#90ADDA;" d="M129.833,231.285c0.01-0.517-0.645-1.507-1.017-1.831c-0.135-0.119-0.528-0.345-0.709-0.357
	c-0.29-0.015-0.391,0.281-0.506,0.505c-0.225,0.435-0.422,0.879-0.649,1.308c-0.291,0.549,0.185,0.65,0.581,0.971
	c0.185,0.148,0.345,0.528,0.585,0.585c0.223,0.054,0.395-0.181,0.57-0.29C128.999,231.979,129.826,231.744,129.833,231.285z"/>
<path style="fill:#3C2415;" d="M141.811,103.959c0.027,0.845-0.318,1.538-0.769,1.554c-0.453,0.014-0.841-0.659-0.867-1.502
	c-0.028-0.841,0.317-1.539,0.769-1.553C141.395,102.443,141.784,103.116,141.811,103.959z"/>
<path style="fill:#3C2415;" d="M152.008,104.287c0.027,0.846-0.316,1.541-0.769,1.555c-0.454,0.014-0.84-0.657-0.868-1.502
	c-0.027-0.841,0.317-1.537,0.771-1.553C151.593,102.772,151.981,103.444,152.008,104.287z"/>
<path style="fill:none;stroke:#003841;stroke-width:0.8735;stroke-linecap:round;stroke-linejoin:round;stroke-miterlimit:10;" d="
	M150.665,99.943c1.094-0.395,2.091,0.216,2.657,1.081"/>
<path style="fill:none;stroke:#003841;stroke-width:0.8735;stroke-linecap:round;stroke-linejoin:round;stroke-miterlimit:10;" d="
	M141.661,99.243c-1.117-0.325-2.073,0.348-2.582,1.248"/>
<path style="fill:#FFFFFF;" d="M150.136,111.07c0,0-4.583,1.696-8.86,0.09c0,0,1.544,4.307,4.648,3.902
	C149.026,114.656,150.136,111.07,150.136,111.07z"/>
<path style="fill:#003841;" d="M161.675,98.592c0,0-12.628-1.128-23.25-2.737c-10.621-1.608-9.304-9.139-9.304-9.139
	s8.633-0.358,11.009-1.616c2.377-1.258,3.407-2.428,8.756-1.303C154.236,84.921,162.825,91.914,161.675,98.592z"/>
<path style="fill:#FFE29F;" d="M142.813,83.734c0,0,14.957-10.347,21.452,9.276c0.838,2.534,2.07,7.445-1.1,10.615
	C163.165,103.626,157.608,80.234,142.813,83.734z"/>
<path style="fill:#FBC4AB;" d="M160.926,108.123c0.5,0.384,1.111,0.64,1.784,0.708c1.909,0.194,3.608-1.196,3.788-3.104
	c0.176-1.906-1.232-3.617-3.138-3.801c-1.149-0.121-2.217,0.332-2.928,1.119"/>
<g>
	<path style="fill:#FDB92A;" d="M151.366,174.28c0,0-4.169-0.386-4.594,0.212c-4.024,5.646-7.426,19.537-11.739,32.109
		c-0.818,3.508,6.48,7.232,8.645,6.982c10.289-17.309,21.675-35.596,21.675-35.596L151.366,174.28z"/>
</g>
<g>
	<g>
		<g>
			<g>
				<path style="fill:#90ADDA;" d="M206.077,222.133c-0.346,0.914-0.184,1.31,1.539,3.704c0.793,1.103,2.397,0.329,3.689-0.6
					c1.714-1.232,4.401,3.486,9.635-0.276c2.96-2.13,1.052-4.559-1.322-4.864c-4.583-0.587-5.622,0.446-9.211-0.827
					c-0.055-0.017-0.104-0.065-0.161-0.057c-1.085,0.129-1.925,0.732-2.494,1.145C207.242,220.722,206.313,221.507,206.077,222.133z
					"/>
			</g>
		</g>
	</g>
</g>
<g>
	<g>
		<path style="fill:#E1F3FA;" d="M220.507,224.358c-5.234,3.764-7.921-0.956-9.635,0.275c-1.247,0.9-2.783,1.645-3.6,0.705
			c0.106,0.159,0.22,0.327,0.344,0.498c0.793,1.103,2.397,0.329,3.689-0.6c1.714-1.232,4.401,3.486,9.635-0.276
			c1.895-1.364,1.79-2.847,0.851-3.818C222.261,222.069,222.043,223.254,220.507,224.358z"/>
	</g>
</g>
<g>
	<path style="fill:#FDB92A;" d="M195.673,195.145c3.873,5.645,16.046,23.603,15.556,25.057c-0.418,1.244-3.369,4.514-4.128,3.737
		c-2.831-2.905-16.357-16.872-19.419-20.112c0,0-0.637-2.188,1.555-4.729C192.444,195.376,195.673,195.145,195.673,195.145z"/>
</g>
<path style="fill:#90ADDA;" d="M208.44,220.882c-0.132-0.5,0.27-1.617,0.552-2.021c0.104-0.146,0.432-0.46,0.606-0.512
	c0.277-0.085,0.445,0.178,0.61,0.37c0.322,0.369,0.621,0.753,0.942,1.115c0.412,0.463-0.025,0.675-0.334,1.081
	c-0.143,0.188-0.21,0.595-0.429,0.707c-0.204,0.105-0.427-0.084-0.622-0.147C209.416,221.359,208.559,221.326,208.44,220.882z"/>
<g>
	<path style="fill:#FDB92A;" d="M172.614,170.902c0,0,4.961-2.083,5.516-1.605c5.25,4.528,12.214,17.656,19.394,28.845
		c1.628,3.212-4.576,8.564-6.739,8.836c-14.108-14.368-29.514-29.423-29.514-29.423L172.614,170.902z"/>
</g>
<g>
	<g>
		<path style="fill:#FBC4AB;" d="M133.816,136.703c1.956-2.666,2.549-6.415,1.148-9.344c-5.634-2.657-11.515-5.33-11.515-5.33
			s-0.206-0.184-0.312-0.274c-3.682,1.396-3.366,0.215-4.847,3.593C122.037,128.944,128.273,133.499,133.816,136.703z"/>
		<path style="fill:#003841;" d="M147.04,138.402c-0.385,1.065-1.24,1.903-2.431,2.305c-2.41,0.813-9.038-2.507-15.495-6.767
			c1.608-2.325,2.657-5.689,4.656-7.321c1.185,0.555,6.474,1.161,7.617,1.706"/>
	</g>
	<path style="fill:#FBC4AB;" d="M123.431,125.115c-2.742,1.168-4.205,1.035-5.363,0.108c-8.458-9.535-11.747-16.293-11.747-16.293
		l3.117-1.144c0,0,6.879,8.854,14.011,14.243"/>
	<g>
		<g>
			<path style="fill:#FBC4AB;" d="M108.423,103.396c0.079,0.588,0.253,1.086,0.424,1.524c0.014-0.131,0.032-0.273,0.056-0.43
				c0.079-0.502,0.21-1.16,0.797-1.271c1.89-0.364-0.582,3.717-0.582,3.717l0.77,1.308l-2.864,1.839c0,0-1.067-1.703-1.447-1.858
				c-1.142-0.469-1.401-2.377-1.658-4.252c-0.341-2.496,0.505-4.678,1.892-4.865C107.199,98.919,108.082,100.896,108.423,103.396z"
				/>
		</g>
	</g>
</g>
<g>
	<g>
		<g>
			<path style="fill:#FBC4AB;" d="M214.256,127.113c-4.831,3.583-7.876,9.782-7.016,15.627c8.369,7.645,17.154,15.447,17.154,15.447
				s0.261,0.43,0.395,0.645c7.15-0.451,5.968,1.436,10.357-3.641C230.564,146.93,222.17,135.658,214.256,127.113z"/>
			<path style="fill:#C68228;" d="M192.181,117.055c1.242-1.645,3.176-2.64,5.462-2.701c4.628-0.118,14.364,9.215,23.301,20.085
				c-4.045,3.177-7.676,8.466-12.027,10.228c-1.761-1.604-4.34-4.563-6.034-6.124"/>
		</g>
		<path style="fill:#FBC4AB;" d="M224.456,158.453c3.224,4.358,5.641,5.499,8.308,5.115c22.061-7.149,33.455-14.718,33.455-14.718
			l-3.834-4.666c0,0-14.813,4.095-30.969,5.971"/>
		<g>
			<g>
				<path style="fill:#FBC4AB;" d="M267.921,139.9c-0.541,0.688-1.136,1.191-1.683,1.621c0.082-0.177,0.164-0.371,0.251-0.588
					c0.274-0.698,0.603-1.63-0.06-2.214c-2.133-1.875-2.045,5.169-2.045,5.169l-1.999,0.297l2.415,5.511
					c0,0,2.528-1.607,3.127-1.522c1.802,0.26,3.56-1.975,5.291-4.166c2.302-2.924,2.857-6.331,1.235-7.608
					C272.828,135.122,270.225,136.975,267.921,139.9z"/>
			</g>
		</g>
	</g>
	<g>
		<g>
			<g>
				<path style="fill:#003841;" d="M195.426,321.277c-1.459,0.971-1.639,1.718-1.639,7.011c0,2.436,3.146,2.99,6.005,2.99
					c3.785,0,2.754,9.689,14.32,9.689c6.541,0,6.308-5.538,3.168-8.47c-6.059-5.653-8.654-5.239-12.549-10.852
					c-0.06-0.082-0.083-0.202-0.175-0.254c-1.714-0.947-3.57-0.947-4.831-0.947C198.604,320.444,196.426,320.614,195.426,321.277z"
					/>
			</g>
		</g>
	</g>
	<g>
		<path style="fill:#E1F3FA;" d="M214.117,339.637c-11.565,0-10.535-9.689-14.321-9.689c-2.759,0-5.775-0.523-5.983-2.747
			c-0.012,0.346-0.02,0.707-0.02,1.088c0,2.436,3.146,2.99,6.004,2.99c3.786,0,2.756,9.689,14.321,9.689
			c4.188,0,5.59-2.271,5.24-4.673C219.07,338.142,217.512,339.637,214.117,339.637z"/>
	</g>
	<g>
		<path style="fill:#E1F3FA;" d="M202.079,297.975c-0.202,12.883,1.052,23.536-0.597,25.222c-1.408,1.44-6.895,1.104-7.109-0.917
			c-0.797-7.55-2.451-15.986-3.237-24.305H202.079z"/>
	</g>
	<g>
		<g>
			<path style="fill:#003841;" d="M167.799,322.235c-0.577,1.072-1.023,3.615-1.722,5.075c-1.814,3.792-4.468,5.67-6.755,9.445
				c-1.333,2.197-0.825,7.49,5.571,8.066c6.395,0.574,8.985-3.768,9.385-6.231c0.923-5.684,0.673-9.753,2.151-15.124
				c0.571-2.108-2.206-2.994-4.509-2.944C170.134,320.558,168.504,320.915,167.799,322.235z"/>
		</g>
	</g>
	<g>
		<g>
			<path style="fill:#E1F3FA;" d="M159.322,336.756c0.064-0.106,0.132-0.195,0.196-0.299c-0.334,2.496,1.016,5.951,6.115,6.409
				c4.733,0.426,7.378-1.843,8.597-4.048c-0.513,2.489-3.129,6.563-9.337,6.004C158.497,344.246,157.989,338.953,159.322,336.756z"
				/>
		</g>
	</g>
	<g>
		<path style="fill:#E1F3FA;" d="M168.215,298.227c0.201,12.879-1.054,23.536,0.596,25.222c1.409,1.44,6.893,1.102,7.109-0.917
			c0.798-7.552,1.415-15.988,2.202-24.305H168.215z"/>
	</g>
	<g>
		<path style="fill:#0D4F59;" d="M176.451,321.441c-0.236,1.821-8.934,3.806-9.607,1.236c-1.276-4.878-11.364-90.616-7.029-116.308
			c0.227-1.347,6.556-5.148,6.556-5.148l18.621-4.445C184.991,196.778,181.982,278.346,176.451,321.441z"/>
	</g>
	<g>
		<path style="fill:#0D4F59;" d="M193.792,320.957c0.236,1.821,9.038,3.48,9.567,0.408c0.317-1.837,5.123-82.814,2.744-114.009
			c-0.184-2.395-1.513-9.491-1.513-9.491l-23.46-4.028C181.131,193.838,188.261,277.861,193.792,320.957z"/>
	</g>
	<polygon style="fill:#0D4F59;" points="159.814,206.37 162.769,189.502 203.86,189.502 206.104,207.356 	"/>
	<g>
		<g>
			<g>
				<path style="fill:#C68228;" d="M236.93,321.084c0.978,0.65,1.098,1.151,1.098,4.698c0,1.63-2.107,2.003-4.023,2.003
					c-2.536,0-1.847,6.49-9.596,6.49c-4.382,0-4.226-3.711-2.122-5.675c4.061-3.786,5.798-3.509,8.408-7.27
					c0.039-0.057,0.055-0.137,0.118-0.172c1.148-0.633,2.392-0.633,3.236-0.633C234.802,320.526,236.261,320.64,236.93,321.084z"/>
			</g>
		</g>
	</g>
	<g>
		<path style="fill:#E1F3FA;" d="M224.41,333.383c7.749,0,7.06-6.49,9.596-6.49c1.848,0,3.869-0.351,4.01-1.841
			c0.008,0.232,0.013,0.473,0.013,0.73c0,1.63-2.107,2.003-4.023,2.003c-2.536,0-1.847,6.49-9.596,6.49
			c-2.805,0-3.745-1.521-3.51-3.131C221.092,332.383,222.137,333.383,224.41,333.383z"/>
	</g>
	<g>
		<path style="fill:#FBC4AB;" d="M231.679,303.407c0.154,9.87-0.807,18.034,0.457,19.327c1.079,1.104,5.282,0.846,5.448-0.701
			c0.61-5.789,1.878-12.253,2.48-18.626H231.679z"/>
	</g>
	<g>
		<g>
			<path style="fill:#C68228;" d="M266.953,321.418c0.396,0.738,0.703,2.484,1.183,3.488c1.246,2.605,3.069,3.895,4.64,6.489
				c0.917,1.509,0.567,5.143-3.826,5.538c-4.393,0.396-6.171-2.588-6.446-4.28c-0.634-3.902-0.461-6.698-1.477-10.388
				c-0.393-1.449,1.514-2.056,3.096-2.021C265.349,320.267,266.469,320.515,266.953,321.418z"/>
		</g>
	</g>
	<g>
		<g>
			<path style="fill:#E1F3FA;" d="M272.775,331.396c-0.044-0.073-0.09-0.136-0.134-0.206c0.23,1.715-0.698,4.087-4.2,4.402
				c-3.251,0.293-5.068-1.266-5.906-2.781c0.353,1.711,2.15,4.507,6.414,4.123C273.343,336.539,273.692,332.904,272.775,331.396z"/>
		</g>
	</g>
	<g>
		<path style="fill:#87D6F8;" d="M240.255,311.804c-0.251,1.933-8.8,3.47-9.262,1.181c-2.603-12.879-2.686-73.378-1.764-97.821
			c0.108-2.892,1.005-11.535,1.005-11.535l21.997-4.866C252.231,198.762,246.117,266.126,240.255,311.804z"/>
	</g>
	<g>
		<path style="fill:#FBC4AB;" d="M267.178,303.114c-0.155,9.87,0.806,18.036-0.457,19.328c-1.079,1.105-5.283,0.845-5.448-0.702
			c-0.61-5.787-1.879-12.252-2.48-18.626H267.178z"/>
	</g>
	<g>
		<path style="fill:#87D6F8;" d="M258.601,311.511c0.25,1.934,9.11,3.512,9.262,1.182c1.892-29.069,6.049-74.929,3.896-99.292
			c-0.264-2.994-4.376-10.339-4.376-10.339l-20.76-4.592C246.624,198.47,252.738,265.834,258.601,311.511z"/>
	</g>
	<polygon style="fill:#87D6F8;" points="229.242,214.744 230.669,198.762 269.517,198.762 271.76,213.4 	"/>
	<path style="fill:#003841;" d="M234.084,88.858c-1.458,5.848,2.102,14.636,1.813,24.039c-0.229,7.436-10.455,34.82,0.877,34.416
		c11.326-0.411,35.784,3.53,33.673-5.21c-2.179-9.025-1.703-54.856-12.81-59.259c-13.591-5.384-20.536,1.891-20.536,1.891
		S234.393,87.619,234.084,88.858z"/>
	<path style="fill:#E1F3FA;" d="M230.88,132.059l12.594-2.954h11.295c0,0,9.434,1.943,13.145,4.008c0,0,3.697,22.067-0.415,36.515
		c-4.084,14.333,2.716,31.058,2.716,31.058s-8.905,5.495-19.456,5.495c-11.322,0-21.759-5.495-21.759-5.495
		s7.71-15.583,2.896-30.812C226.108,151.561,230.88,132.059,230.88,132.059z"/>
	<g>
		<g>
			<path style="fill:#FAB8A6;" d="M245.487,111.79l-1.038,12.927c0,0-3.467,15.571,2.921,15.571c8.029,0,7.068-15.474,7.068-15.474
				l-0.961-12.943L245.487,111.79z"/>
		</g>
	</g>
	<g>
		<g>
			<path style="fill:#FBC4AB;" d="M221.055,143.764c4.611,2.645,7.926,7.773,7.774,12.99c-6.556,7.577-13.46,15.334-13.46,15.334
				s-0.185,0.404-0.281,0.606c-6.325,0.342-5.089,1.879-9.469-2.124C208.788,162.845,214.992,152.083,221.055,143.764z"/>
			<path style="fill:#E1F3FA;" d="M232.524,153.153c-1.824,1.999-4.071,4.434-4.968,5.468c-4-1.095-7.734-5.363-11.614-7.735
				c6.721-10.464,11.423-18.656,15.497-19.03l2.645-0.525"/>
		</g>
		<g>
			<path style="fill:#FBC4AB;" d="M215.942,171.392c-1.983,4.365-7.94,5.555-10.323,5.512c-20.493-0.362-27.549-6.103-27.549-6.103
				l2.453-4.74c0,0,13.56,0.807,27.871-0.555"/>
			<g>
				<g>
					<path style="fill:#FBC4AB;" d="M176.331,162.772c0.655,0.58,1.33,0.969,1.945,1.294c-0.113-0.159-0.228-0.335-0.354-0.535
						c-0.395-0.637-0.884-1.495-0.336-2.19c1.762-2.226,2.936,4.72,2.936,4.72l2.873,0.124l-2.24,5.666c0,0-2.775-1.128-3.35-0.937
						c-1.725,0.576-3.856-1.307-5.951-3.151c-2.788-2.464-3.945-5.718-2.577-7.266C170.647,158.949,173.54,160.309,176.331,162.772z
						"/>
				</g>
			</g>
		</g>
	</g>
	<g>
		<g>
			<path style="fill:#FBC4AB;" d="M270.457,150.44c-5.31-0.252-10.862,2.286-13.543,6.767c1.449,9.915,3.095,20.167,3.095,20.167
				s3.189,4.983,9.033,3.966C270.529,173.123,271.091,160.714,270.457,150.44z"/>
			<path style="fill:#E1F3FA;" d="M255.738,152.183c0.461,2.668,1.045,5.928,1.246,7.283c3.961,1.229,9.405-0.36,13.951-0.273
				c-0.035-12.435,0.811-23.879-2.624-25.988c-0.458-0.281-2.095-0.728-2.095-0.728"/>
		</g>
	</g>
	<path style="fill:#C68228;" d="M233.745,321.525c-0.221-0.58-1.398-1.391-1.958-1.586c-0.202-0.07-0.743-0.146-0.949-0.075
		c-0.33,0.112-0.31,0.488-0.338,0.787c-0.054,0.588-0.074,1.173-0.135,1.753c-0.078,0.741,0.499,0.64,1.085,0.82
		c0.271,0.083,0.622,0.432,0.914,0.389c0.271-0.042,0.358-0.381,0.504-0.58C233.127,322.676,233.942,322.041,233.745,321.525z"/>
	<path style="fill:#C68228;" d="M262.643,321.69c0.524-1.295,4.77-2.196,5.585,0.162c0.261,0.753-0.212,2.725-0.682,3.276
		c-0.665,0.778-2.611,0.931-3.518,0.486C263.548,325.378,262.28,322.593,262.643,321.69z"/>
	<g>
		<g>
			<g>
				<g>
					<path style="fill:#FBC4AB;" d="M256.977,112.96c-0.676,7.611-5.546,13.31-12.912,12.612l0,0
						c-7.366-0.697-12.293-7.277-11.618-14.889l0.747-14.164c0.676-7.613,7.194-13.215,14.56-12.519l0,0
						c7.366,0.697,12.79,7.435,12.113,15.048L256.977,112.96z"/>
				</g>
			</g>
			<path style="fill:#003841;" d="M260.527,107.63c0,0-2.22-0.758-5.315-11.051c-0.058-0.188-9.532,7.283-24.269,4.389
				c-0.749-7.235,2.88-14.938,6.583-17.025c1.768-0.997,14.009-8.565,23.001,1.376c0,0,1.956,2.792,2.388,6.993"/>
			<path style="fill:#FBC4AB;" d="M256.611,111.149c0.505,0.413,1.129,0.699,1.822,0.793c1.967,0.263,3.772-1.12,4.023-3.086
				c0.243-1.967-1.158-3.78-3.122-4.037c-1.184-0.162-2.304,0.269-3.067,1.064"/>
			<path style="fill:#F8AEA2;" d="M243.551,119.724c-0.024,0.269-0.603,0.433-1.291,0.369c-0.688-0.063-1.227-0.329-1.202-0.598
				c0.024-0.268,0.602-0.433,1.292-0.369C243.035,119.189,243.576,119.458,243.551,119.724z"/>
		</g>
		<path style="fill:#3C2415;" d="M238.409,107.67c0,0.843-0.366,1.525-0.818,1.525c-0.451,0-0.817-0.682-0.817-1.525
			c0-0.842,0.366-1.525,0.817-1.525C238.043,106.145,238.409,106.828,238.409,107.67z"/>
		<path style="fill:#3C2415;" d="M248.571,108.323c0,0.844-0.366,1.526-0.818,1.526c-0.451,0-0.817-0.683-0.817-1.526
			c0-0.842,0.366-1.525,0.817-1.525C248.206,106.797,248.571,107.481,248.571,108.323z"/>
		<path style="fill:#FFFFFF;" d="M237.95,114.718c0,0,4.726,1.579,9.032-0.196c0,0-1.434,4.439-4.61,4.128
			C239.197,118.337,237.95,114.718,237.95,114.718z"/>
		
			<path style="fill:none;stroke:#003841;stroke-width:0.8719;stroke-linecap:round;stroke-linejoin:round;stroke-miterlimit:10;" d="
			M247.37,103.945c1.104-0.359,2.078,0.283,2.616,1.163"/>
		
			<path style="fill:none;stroke:#003841;stroke-width:0.8719;stroke-linecap:round;stroke-linejoin:round;stroke-miterlimit:10;" d="
			M238.409,103.945c-1.104-0.359-2.079,0.283-2.616,1.163"/>
		
			<path style="fill:none;stroke:#F79C87;stroke-width:0.7281;stroke-linecap:round;stroke-linejoin:round;stroke-miterlimit:10;" d="
			M242.184,109.06c0,0-2.8,3.505,0.792,3.233"/>
	</g>
	<g>
		<g>
			<path style="fill:#C68228;" d="M204.539,190.606c-0.062-0.666-0.847-2.503-0.82-3.24c0.039-1.007,0.353-2.09,0.425-3.132
				c0.158-2.224,0.316-4.447,0.473-6.671c0.42-5.954,1.253-13.387,1.263-17.865c0.018-8.591-0.28-25.479-0.105-34.068
				c0.021-1.062-0.625-9.035-5.781-10.761c-3.857-1.291-11.581-2.377-11.581-2.377h-11.549c0,0-12.387,1.112-15.638,2.896
				c-2.156,1.182-3.293,4.65-3.293,5.767c0.52,7.284,1.039,14.568,1.56,21.852c0.86,12.057,1.721,24.114,2.581,36.169
				c0.213,2.99,1.498,8.123-0.336,10.667c-0.613,0.849-0.609,2.341,0.407,3.262C163.665,194.481,204.962,195.24,204.539,190.606z"/>
		</g>
	</g>
	<g>
		<g>
			<path style="fill:#F8AEA2;" d="M186.419,97.412l1.201,14.968c0,0,4.998,13.563,2.233,13.4
				c-2.226-0.134-13.801-13.288-13.801-13.288l1.114-14.989L186.419,97.412z"/>
		</g>
	</g>
	<path style="fill:#003841;" d="M200.185,321.935c0.331-0.865,2.086-2.071,2.922-2.364c0.303-0.105,1.11-0.219,1.417-0.115
		c0.493,0.167,0.462,0.73,0.504,1.178c0.08,0.877,0.112,1.749,0.201,2.615c0.115,1.105-0.743,0.955-1.618,1.225
		c-0.404,0.123-0.928,0.645-1.365,0.581c-0.406-0.062-0.534-0.568-0.752-0.867C201.107,323.653,199.89,322.705,200.185,321.935z"/>
	<path style="fill:#003841;" d="M173.333,322.34c-0.763-1.884-6.942-3.195-8.13,0.236c-0.378,1.098,0.309,3.969,0.993,4.77
		c0.968,1.135,3.801,1.354,5.122,0.707C172.016,327.71,173.864,323.655,173.333,322.34z"/>
	<g>
		<g>
			<g>
				<path style="fill:#FBC4AB;" d="M172.197,97.677c0.729,7.965,7.78,13.834,15.748,13.102l0,0
					c7.967-0.731,13.834-7.784,13.102-15.749l-1.344-14.661c-0.731-7.967-7.783-13.833-15.749-13.101l0,0
					c-7.968,0.729-13.833,7.781-13.103,15.75L172.197,97.677z"/>
			</g>
		</g>
		<g>
			<path style="fill:#003841;" d="M184.575,65.638c-8.088,0.183-15.342,4.419-16.555,13.738c-0.5,3.834,1.564,13.096,1.564,13.096
				s3.558,2.008,6.538-5.397c0.751-1.867,0.376-6.596,2.078-7.577c2.833-1.633,7.153,2.184,12.96,1.721
				c3.543-0.282,5.784-3.626,8.03-3.566C203.052,77.753,196.499,65.367,184.575,65.638z"/>
		</g>
		<path style="fill:#FBC4AB;" d="M174.165,95.685c-0.528,0.432-1.181,0.73-1.908,0.829c-2.059,0.275-3.948-1.172-4.209-3.231
			c-0.255-2.058,1.21-3.958,3.267-4.225c1.239-0.169,2.412,0.282,3.208,1.113"/>
		
			<path style="fill:none;stroke:#F79C87;stroke-width:0.7621;stroke-linecap:round;stroke-linejoin:round;stroke-miterlimit:10;" d="
			M194.879,99.949c0,0-3.987,2.407-8.031,0.738"/>
		
			<path style="fill:none;stroke:#F79C87;stroke-width:0.7621;stroke-linecap:round;stroke-linejoin:round;stroke-miterlimit:10;" d="
			M191.285,93.562c0,0,2.93,3.671-0.828,3.385"/>
		<path style="fill:#F8AEA2;" d="M189.855,102.999c0.024,0.28,0.631,0.454,1.351,0.387c0.721-0.065,1.285-0.346,1.259-0.628
			c-0.026-0.278-0.631-0.452-1.351-0.385C190.393,102.44,189.828,102.721,189.855,102.999z"/>
		<path style="fill:#3C2415;" d="M194.716,90.514c0,0.914,0.397,1.656,0.887,1.656c0.489,0,0.887-0.742,0.887-1.656
			c0-0.914-0.398-1.656-0.887-1.656C195.114,88.858,194.716,89.6,194.716,90.514z"/>
		<path style="fill:#3C2415;" d="M183.688,91.223c0,0.913,0.396,1.656,0.887,1.656c0.49,0,0.887-0.743,0.887-1.656
			c0-0.914-0.397-1.656-0.887-1.656C184.084,89.566,183.688,90.309,183.688,91.223z"/>
		
			<path style="fill:none;stroke:#003841;stroke-width:0.9462;stroke-linecap:round;stroke-linejoin:round;stroke-miterlimit:10;" d="
			M184.991,86.471c-1.199-0.389-2.255,0.308-2.838,1.262"/>
		
			<path style="fill:none;stroke:#003841;stroke-width:0.9462;stroke-linecap:round;stroke-linejoin:round;stroke-miterlimit:10;" d="
			M194.716,85.401c1.199-0.389,2.255,0.308,2.838,1.262"/>
		<g>
			<path style="fill:#003841;" d="M185.61,100.568c0.235-0.418,1.529-0.766,1.529-0.766s0.287,0.519,0.612,0.549
				c0.528,0.052,1.297-0.384,1.297-0.384s0.749,0.453,1.004,0.444c0.426-0.015,0.663-0.177,1.033-0.068
				c0.245,0.075,0.396,0.221,0.712,0.162c0.178-0.033,0.227-0.421,0.465-0.462c0.493-0.086,0.844,0.16,1.342,0.063
				c0.228-0.044,0.379-0.186,0.711-0.219c0.238-0.023,0.602,0.155,0.862,0.065c0.231-0.079,0.217-0.423,0.469-0.485
				c0.204-0.052,0.539,0.181,0.791,0.167c0.427-0.022,0.234-0.27,0.779-0.221c-1.469-1.972-0.671-2.056-3.86-2.397
				c-1.432-0.154-3.349,0.049-4.662,0.286C186.883,97.625,185.937,97.957,185.61,100.568z"/>
		</g>
	</g>
	<g>
		<g>
			<path style="fill:#FBC4AB;" d="M156.597,137.868c5.931-0.997,12.51,1.106,16.124,5.781c-0.295,11.331-0.765,23.071-0.765,23.071
				s0.129,0.486,0.191,0.73c-5.283,4.84-3.104,5.297-9.807,4.939C159.566,163.359,157.267,149.496,156.597,137.868z"/>
			<path style="fill:#C68228;" d="M164.657,114.987c-2.047-0.245-4.105,0.46-5.734,2.065c-3.294,3.251-3.32,16.737-1.685,30.716
				c5.094-0.712,11.422,0.337,15.71-1.574c0.064-2.38-0.278-6.29-0.23-8.594"/>
		</g>
	</g>
</g>
<g>
	<g>
		<g>
			<g>
				<path style="fill:#003841;" d="M207.88,347.406c1.09,0.726,1.225,1.285,1.225,5.243c0,1.821-2.353,2.235-4.49,2.235
					c-2.831,0-2.061,7.244-10.709,7.244c-4.892,0-4.716-4.141-2.369-6.332c4.53-4.227,6.471-3.916,9.383-8.116
					c0.044-0.06,0.063-0.15,0.132-0.189c1.281-0.709,2.67-0.709,3.612-0.709C205.504,346.783,207.133,346.91,207.88,347.406z"/>
			</g>
		</g>
	</g>
	<g>
		<path style="fill:#E1F3FA;" d="M193.907,361.135c8.648,0,7.878-7.246,10.709-7.246c2.063,0,4.319-0.389,4.474-2.053
			c0.008,0.259,0.016,0.527,0.016,0.814c0,1.821-2.353,2.235-4.49,2.235c-2.831,0-2.061,7.244-10.709,7.244
			c-3.131,0-4.179-1.696-3.917-3.492C190.203,360.017,191.368,361.135,193.907,361.135z"/>
	</g>
	<g>
		<path style="fill:#FBC4AB;" d="M201.374,307.428c0.151,9.632,0.747,40.154,1.981,41.414c1.053,1.078,5.155,0.825,5.315-0.687
			c0.596-5.644,3.284-33.719,3.871-39.938L201.374,307.428z"/>
	</g>
	<g>
		<path style="fill:#E1F3FA;" d="M209.816,336.593c-0.512,5.261-0.945,9.673-1.146,11.563c-0.16,1.512-4.262,1.765-5.315,0.687
			c-0.481-0.491-0.864-5.43-1.162-11.835C204.645,337.714,207.494,337.595,209.816,336.593z"/>
	</g>
	<g>
		<g>
			<path style="fill:#003841;" d="M232.081,348.122c0.43,0.802,0.765,2.704,1.286,3.797c1.357,2.835,3.343,4.237,5.051,7.063
				c0.998,1.641,0.617,5.599-4.165,6.029c-4.78,0.43-6.718-2.818-7.018-4.659c-0.689-4.248-0.503-7.292-1.607-11.311
				c-0.427-1.575,1.649-2.236,3.37-2.2C230.334,346.869,231.552,347.137,232.081,348.122z"/>
		</g>
	</g>
	<g>
		<g>
			<path style="fill:#E1F3FA;" d="M238.418,358.982c-0.047-0.08-0.097-0.148-0.145-0.226c0.251,1.866-0.759,4.451-4.573,4.794
				c-3.539,0.318-5.516-1.377-6.428-3.027c0.383,1.861,2.34,4.904,6.981,4.488C239.035,364.581,239.416,360.623,238.418,358.982z"/>
		</g>
	</g>
	<g>
		<path style="fill:#FBC4AB;" d="M234.102,307.032c-0.151,9.633-1.546,40.737-2.78,41.999c-1.052,1.074-5.154,0.823-5.315-0.688
			c-0.597-5.646-3.438-36.965-4.026-43.183L234.102,307.032z"/>
	</g>
	<g>
		<path style="fill:#E1F3FA;" d="M232.869,335.267c-0.474,7.34-1.023,13.229-1.546,13.764c-1.052,1.074-5.154,0.823-5.315-0.688
			c-0.195-1.839-0.627-6.405-1.142-11.934C227.552,336.774,230.351,336.283,232.869,335.267z"/>
	</g>
	<g>
		<path style="fill:#C68228;" d="M233.148,257.635c0,0,1.194,2.843,1.363,3.849c1.608,9.526,1.946,37.997,1.246,56.757
			c-2.689,0.808-4.445,0.782-7.038,0.808c-2.225,0.02-5.396,0.666-7.296-0.808c-3.045-28.122-6.038-65.249-6.038-65.249
			L233.148,257.635z"/>
	</g>
	<g>
		<path style="fill:#C68228;" d="M200.086,317.965c-0.381-1.533-0.248-7.297-0.349-11.29c-0.411-16.339-0.523-35.46,0.162-44.453
			c0.136-1.791,1.131-7.099,1.131-7.099l17.541-3.012c0,0-2.448,37.359-5.333,66.129
			C208.862,318.852,200.544,319.822,200.086,317.965z"/>
	</g>
	<polygon style="fill:#C68228;" points="234.512,261.483 232.303,248.87 201.577,248.87 199.899,262.222 	"/>
	<g>
		<g>
			<path style="fill:#3D7F53;" d="M201.07,249.695c0.044-0.496,0.632-1.871,0.611-2.422c-0.029-0.754-0.262-1.565-0.317-2.343
				c-0.118-1.662-0.236-3.324-0.353-4.987c-0.314-4.452-0.63-8.906-0.944-13.359c-0.59-8.33-1.179-16.662-1.769-24.997
				c-0.074-1.055-0.149-2.112-0.223-3.169c0-1.771,2.333-3.998,4.057-4.662c2.836-1.096,10.996-2.469,10.996-2.469h8.636
				c0,0,9.262,0.83,11.694,2.164c1.612,0.883,2.462,3.478,2.462,4.313c-0.389,5.446-0.777,10.893-1.167,16.339
				c-0.643,9.016-1.287,18.031-1.929,27.048c-0.161,2.235-1.12,6.073,0.25,7.975c0.458,0.635,0.455,1.751-0.306,2.439
				C231.633,252.594,200.752,253.16,201.07,249.695z"/>
		</g>
	</g>
	<g>
		<g>
			<path style="fill:#F8AEA2;" d="M214.618,180.011l-0.898,11.191c0,0-2.067,10.029,0,9.907c1.664-0.101,8.649-9.822,8.649-9.822
				l-0.832-11.21L214.618,180.011z"/>
		</g>
	</g>
	<g>
		<g>
			<path style="fill:#FBC4AB;" d="M243.6,205.386c-4.094,1.861-7.293,5.915-7.582,10.325c4.918,6.901,10.118,13.985,10.118,13.985
				s0.122,0.353,0.186,0.532c5.298,0.794,4.138,1.985,8.145-1.035C252.412,222.434,248.045,212.876,243.6,205.386z"/>
			<path style="fill:#3D7F53;" d="M229.039,194.567c1.167-1.007,2.736-1.43,4.419-1.115c3.4,0.639,9.055,8.991,13.882,18.341
				c-3.456,1.688-6.94,4.982-10.398,5.591c-1.034-1.45-2.457-4.018-3.45-5.425"/>
		</g>
		<path style="fill:#FBC4AB;" d="M252.934,225.391c2.123,3.455,2.238,5.45,1.227,7.19c-11.122,13.306-19.555,19.094-19.555,19.094
			l-2.166-3.962c0,0,6.98-9.131,12.794-19.813"/>
		<g>
			<g>
				<path style="fill:#FBC4AB;" d="M226.738,249.963c0.773-0.225,1.409-0.561,1.964-0.879c-0.18,0.009-0.374,0.012-0.59,0.012
					c-0.691-0.007-1.602-0.047-1.873-0.816c-0.868-2.471,5.122,0.032,5.122,0.032l1.602-1.299l3.054,3.482
					c0,0-2.076,1.779-2.208,2.322c-0.4,1.629-2.916,2.361-5.385,3.089c-3.291,0.96-6.396,0.262-6.931-1.565
					C220.962,252.514,223.443,250.925,226.738,249.963z"/>
			</g>
		</g>
	</g>
	<g>
		<g>
			<path style="fill:#FBC4AB;" d="M189.802,205.691c4.095,1.86,7.295,5.915,7.582,10.323c-4.917,6.903-10.116,13.984-10.116,13.984
				s-0.124,0.356-0.188,0.535c-5.297,0.793-4.137,1.984-8.144-1.036C180.989,222.738,185.358,213.18,189.802,205.691z"/>
			<path style="fill:#3D7F53;" d="M204.362,194.871c-1.167-1.007-2.737-1.43-4.418-1.114c-3.401,0.638-9.055,8.99-13.883,18.34
				c3.456,1.688,6.94,4.984,10.399,5.59c1.035-1.45,2.456-4.018,3.449-5.423"/>
		</g>
		<path style="fill:#FBC4AB;" d="M180.469,225.695c-2.124,3.453-2.24,5.449-1.227,7.191c11.122,13.304,19.555,19.093,19.555,19.093
			l2.166-3.963c0,0-6.981-9.132-12.794-19.813"/>
		<g>
			<g>
				<path style="fill:#FBC4AB;" d="M206.665,250.267c-0.774-0.226-1.41-0.562-1.965-0.879c0.179,0.009,0.373,0.012,0.59,0.011
					c0.691-0.006,1.6-0.046,1.871-0.815c0.87-2.469-5.122,0.032-5.122,0.032l-1.602-1.298l-3.054,3.482c0,0,2.077,1.781,2.209,2.322
					c0.4,1.629,2.916,2.362,5.385,3.087c3.291,0.963,6.396,0.265,6.93-1.563C212.439,252.816,209.959,251.229,206.665,250.267z"/>
			</g>
		</g>
	</g>
	<path style="fill:#003841;" d="M204.324,347.898c-0.247-0.647-1.56-1.551-2.185-1.768c-0.227-0.079-0.829-0.164-1.059-0.087
		c-0.369,0.125-0.346,0.546-0.377,0.882c-0.061,0.656-0.084,1.307-0.151,1.955c-0.085,0.826,0.557,0.715,1.212,0.915
		c0.301,0.092,0.692,0.482,1.021,0.436c0.303-0.049,0.399-0.427,0.562-0.65C203.635,349.183,204.545,348.475,204.324,347.898z"/>
	<path style="fill:#003841;" d="M227.942,348.2c0.569-1.408,5.191-2.389,6.079,0.177c0.284,0.822-0.23,2.968-0.742,3.565
		c-0.725,0.851-2.842,1.018-3.83,0.531C228.926,352.217,227.545,349.185,227.942,348.2z"/>
	<g>
		<g>
			<g>
				<path style="fill:#FBC4AB;" d="M228.717,179.304c-1.761,7.087-8.939,11.409-16.029,9.646l0,0
					c-7.092-1.763-11.411-8.94-9.65-16.032l3.244-13.045c1.764-7.093,8.94-11.412,16.03-9.648l0,0
					c7.092,1.761,11.411,8.938,9.649,16.03L228.717,179.304z"/>
			</g>
		</g>
		<g>
			<g>
				<path style="fill:#003841;" d="M222.484,147.544c7.321,0.998,12.731,7.234,12.536,15.815c-0.08,3.532-3.226,11.606-3.226,11.606
					s-5.462,2.07-5.982-12.904c-0.013-0.386-18.291-2.93-22.679-5.618c-3.167-1.94-1.483-6.758-1.124-8.382
					c0.09,2.352,1.272,2.651,1.666,3.032c-0.732-1.403-1.728-7.276,0.645-8.595C210.745,150.238,219.331,147.114,222.484,147.544z"
					/>
			</g>
		</g>
		<path style="fill:#FBC4AB;" d="M227.215,177.23c0.417,0.462,0.966,0.824,1.607,1.013c1.822,0.533,3.726-0.511,4.248-2.335
			c0.515-1.821-0.545-3.739-2.366-4.264c-1.095-0.326-2.215-0.079-3.05,0.558"/>
		<path style="fill:none;stroke:#F79C87;stroke-width:0.696;stroke-linecap:round;stroke-linejoin:round;stroke-miterlimit:10;" d="
			M212.054,172.944c0,0-3.152,2.908,0.279,3.17"/>
		<path style="fill:#F8AEA2;" d="M211.895,182.602c-0.061,0.249-0.631,0.322-1.273,0.163c-0.64-0.161-1.111-0.491-1.049-0.741
			c0.063-0.246,0.633-0.321,1.274-0.16C211.486,182.023,211.958,182.354,211.895,182.602z"/>
		<path style="fill:#3C2415;" d="M209.379,169.718c-0.127,0.826-0.588,1.441-1.031,1.373c-0.441-0.067-0.696-0.794-0.57-1.618
			c0.126-0.824,0.587-1.439,1.03-1.372C209.249,168.17,209.505,168.894,209.379,169.718z"/>
		<path style="fill:#3C2415;" d="M219.236,171.884c-0.127,0.826-0.587,1.441-1.029,1.374c-0.442-0.069-0.699-0.793-0.572-1.619
			c0.128-0.823,0.588-1.438,1.031-1.37C219.107,170.336,219.363,171.06,219.236,171.884z"/>
		
			<path style="fill:none;stroke:#003841;stroke-width:0.8642;stroke-linecap:round;stroke-linejoin:round;stroke-miterlimit:10;" d="
			M218.718,167.415c1.136-0.186,1.994,0.59,2.387,1.534"/>
		
			<path style="fill:none;stroke:#003841;stroke-width:0.8642;stroke-linecap:round;stroke-linejoin:round;stroke-miterlimit:10;" d="
			M210.086,165.105c-1.027-0.519-2.078-0.037-2.737,0.745"/>
		<path style="fill:#FFFFFF;" d="M216.188,178.142c0,0-4.764,0.819-8.634-1.516c0,0,0.723,4.469,3.814,4.637
			C214.46,181.43,216.188,178.142,216.188,178.142z"/>
	</g>
</g>
<g>
	<path style="fill:#FBC4AB;" d="M269.458,178.777c-0.385,5.881-3.827,8.329-5.84,9.605c-17.309,10.978-26.36,10.066-26.36,10.066
		l-0.561-5.308c0,0,12.115-6.754,23.313-15.767"/>
	<g>
		<g>
			<path style="fill:#FBC4AB;" d="M231.389,192.702c0.865,0.124,1.643,0.078,2.335,0.011c-0.182-0.071-0.375-0.155-0.589-0.253
				c-0.682-0.315-1.56-0.762-1.484-1.643c0.245-2.829,5.046,2.325,5.046,2.325l2.468-1.476l1.248,5.962c0,0-2.939,0.585-3.313,1.06
				c-1.124,1.434-3.939,1.032-6.705,0.644c-3.683-0.523-6.439-2.602-6.148-4.646C224.539,192.64,227.701,192.181,231.389,192.702z"
				/>
		</g>
	</g>
</g>
<g>
	<path style="fill:#FBC4AB;" d="M160.186,163.991c0,0,2.38,10.522,3.532,12.845c4.065,8.186,24.835,21.31,24.835,21.31l2.547-5.477
		c0,0-10.102-11.583-18.783-25.335"/>
	<g>
		<g>
			<path style="fill:#FBC4AB;" d="M198.904,195.182c-1.051-0.236-1.928-0.628-2.696-1.007c0.242-0.001,0.5-0.014,0.788-0.034
				c0.922-0.068,2.131-0.2,2.427-1.249c0.947-3.37-6.831,0.485-6.831,0.485l-2.251-1.596l-3.775,4.913c0,0,2.925,2.196,3.15,2.908
				c0.674,2.14,4.094,2.9,7.451,3.656c4.476,1,8.56-0.201,9.114-2.685C206.834,198.085,203.384,196.181,198.904,195.182z"/>
		</g>
	</g>
</g>
<g>
	<g>
		<path style="fill:#FBC4AB;" d="M194.421,118.282c-0.028-0.592-0.16-1.103-0.292-1.555c-0.025,0.129-0.055,0.27-0.093,0.424
			c-0.122,0.492-0.309,1.137-0.903,1.197c-1.914,0.199,0.899-3.654,0.899-3.654l-0.654-1.369c0,0,1.21-0.833,1.678-0.833
			c1.844,0,2.251,1.035,2.616,1.222c1.097,0.566,1.191,2.489,1.286,4.379c0.126,2.516-0.905,4.618-2.303,4.685
			C195.256,122.847,194.546,120.802,194.421,118.282z"/>
	</g>
</g>
</svg>
